<?xml version="1.0" ?><svg height="64px" version="1.1" viewBox="0 0 64 64" width="64px" xmlns="http://www.w3.org/2000/svg" xmlns:xlink="http://www.w3.org/1999/xlink"><title/><desc/><defs><polygon id="path-1" points="0.913265081 0.0484 11 0.0484 11 15.6484 0.913265081 15.6484"/></defs><g fill="none" fill-rule="evenodd" id="thermometer" stroke="none" stroke-width="1"><circle cx="32" cy="32" fill="#F7F1E3" id="Oval" r="30"/><g id="Group-32" transform="translate(8.000000, 8.000000)"><path d="M37,41 L30,41 C29.448,41 29,41.447 29,42 C29,42.553 29.448,43 30,43 L37,43 C37.552,43 38,42.553 38,42 C38,41.447 37.552,41 37,41" fill="#866D6D" id="Fill-1"/><path d="M45,35 L31,35 C30.448,35 30,35.447 30,36 C30,36.553 30.448,37 31,37 L45,37 C45.552,37 46,36.553 46,36 C46,35.447 45.552,35 45,35" fill="#866D6D" id="Fill-3"/><path d="M5.5913,40.0244 C5.2043,39.0774 5.0003,38.0544 5.0003,37.0004 C5.0003,34.5654 6.1123,32.2684 8.0003,30.7534 L8.0003,27.0024 C8.0003,27.0014 8.0003,27.0014 8.0003,27.0004 C8.0003,26.9994 8.0003,26.9994 8.0003,26.9984 L8.0003,21.0014 L8.0003,21.0004 L8.0003,20.9994 L8.0003,15.0014 L8.0003,15.0004 L8.0003,14.9994 L8.0003,10.0004 C8.0003,8.9314 8.4163,7.9274 9.1723,7.1714 C9.9263,6.4164 10.9313,6.0004 12.0003,6.0004 L14.0003,6.0004 C15.0693,6.0004 16.0733,6.4164 16.8283,7.1714 C17.5843,7.9274 18.0003,8.9314 18.0003,10.0004 L18.0003,30.7544 C19.8883,32.2694 21.0003,34.5654 21.0003,37.0004 C21.0003,37.1324 20.9873,37.2634 20.9803,37.3954 C22.0023,36.3014 22.7983,34.9604 23.3743,33.3764 C22.7663,31.6374 21.7343,30.0544 20.3343,28.8014 C20.1223,28.6124 20.0013,28.3404 20.0013,28.0564 L20.0003,9.0004 C20.0003,5.1404 16.8603,2.0004 13.0003,2.0004 C9.1403,2.0004 6.0003,5.1404 6.0003,9.0004 L6.0003,28.0554 C6.0003,28.3394 5.8793,28.6114 5.6673,28.8004 C3.3743,30.8524 2.0503,33.7784 2.0083,36.8474 C2.9023,38.2634 4.0963,39.3224 5.5913,40.0244" fill="#FFFFFF" id="Fill-5"/><path d="M13,48 C6.935,48 2,43.065 2,37 C2,36.949 2.007,36.898 2.008,36.848 C2.051,33.778 3.375,30.853 5.667,28.801 C5.879,28.611 6,28.34 6,28.056 L6,9 C6,5.141 9.14,2 13,2 C16.86,2 20,5.141 20,9 L20.001,28.057 C20.001,28.341 20.122,28.612 20.334,28.802 C21.734,30.055 22.767,31.638 23.375,33.376 C23.778,34.531 24,35.753 24,37 C24,43.065 19.065,48 13,48 L13,48 Z M22,9 C22,4.037 17.962,0 13,0 C8.038,0 4,4.037 4,9 L4,27.619 C1.452,30.065 0,33.458 0,37 C0,44.168 5.832,50 13,50 C20.168,50 26,44.168 26,37 C26,33.459 24.548,30.066 22.001,27.62 L22,9 Z" fill="#866D6D" id="Fill-7"/><path d="M16.4282,32.0752 L16.0002,31.7762 L16.0002,10.0002 C16.0002,9.4662 15.7922,8.9642 15.4142,8.5862 C15.0362,8.2082 14.5342,8.0002 14.0002,8.0002 L12.0002,8.0002 C11.4662,8.0002 10.9642,8.2082 10.5862,8.5862 C10.2082,8.9642 10.0002,9.4662 10.0002,10.0002 L10.0002,14.0002 L13.0002,14.0002 C13.5522,14.0002 14.0002,14.4472 14.0002,15.0002 C14.0002,15.5532 13.5522,16.0002 13.0002,16.0002 L10.0002,16.0002 L10.0002,20.0002 L13.0002,20.0002 C13.5522,20.0002 14.0002,20.4472 14.0002,21.0002 C14.0002,21.5532 13.5522,22.0002 13.0002,22.0002 L10.0002,22.0002 L10.0002,26.0002 L13.0002,26.0002 C13.5522,26.0002 14.0002,26.4472 14.0002,27.0002 C14.0002,27.5532 13.5522,28.0002 13.0002,28.0002 L10.0002,28.0002 L10.0002,31.7752 L9.5732,32.0742 C7.9622,33.1982 7.0002,35.0402 7.0002,37.0002 C7.0002,38.4312 7.5022,39.7872 8.4182,40.8692 C9.8012,41.0952 11.3492,41.1262 13.0742,40.9472 C15.1942,40.7272 17.0122,40.1752 18.5422,39.3052 C18.8422,38.5842 19.0002,37.8042 19.0002,37.0002 C19.0002,35.0402 18.0382,33.1992 16.4282,32.0752" fill="#F797A5" id="Fill-9"/><path d="M18.5425,39.3057 C18.2445,40.0217 17.8075,40.6787 17.2425,41.2427 C16.1095,42.3757 14.6035,42.9997 13.0005,42.9997 C11.3965,42.9997 9.8905,42.3757 8.7575,41.2427 C8.6375,41.1227 8.5265,40.9967 8.4185,40.8687 C7.5015,39.7867 7.0005,38.4317 7.0005,36.9997 C7.0005,35.0397 7.9615,33.1987 9.5725,32.0747 L10.0005,31.7757 L10.0005,27.9997 L13.0005,27.9997 C13.5525,27.9997 14.0005,27.5527 14.0005,26.9997 C14.0005,26.4477 13.5525,25.9997 13.0005,25.9997 L10.0005,25.9997 L10.0005,21.9997 L13.0005,21.9997 C13.5525,21.9997 14.0005,21.5527 14.0005,20.9997 C14.0005,20.4477 13.5525,19.9997 13.0005,19.9997 L10.0005,19.9997 L10.0005,15.9997 L13.0005,15.9997 C13.5525,15.9997 14.0005,15.5527 14.0005,14.9997 C14.0005,14.4477 13.5525,13.9997 13.0005,13.9997 L10.0005,13.9997 L10.0005,9.9997 C10.0005,9.4657 10.2085,8.9637 10.5865,8.5857 C10.9635,8.2077 11.4655,7.9997 12.0005,7.9997 L14.0005,7.9997 C14.5345,7.9997 15.0365,8.2077 15.4145,8.5857 C15.7925,8.9637 16.0005,9.4657 16.0005,9.9997 L16.0005,31.7767 L16.4285,32.0757 C18.0385,33.1997 19.0005,35.0397 19.0005,36.9997 C19.0005,37.8037 18.8425,38.5837 18.5425,39.3057 M18.0005,30.7547 L18.0005,9.9997 C18.0005,8.9317 17.5845,7.9277 16.8285,7.1717 C16.0735,6.4157 15.0685,5.9997 14.0005,5.9997 L12.0005,5.9997 C10.9315,5.9997 9.9265,6.4157 9.1715,7.1717 C8.4165,7.9277 8.0005,8.9317 8.0005,9.9997 L8.0005,14.9987 L8.0005,14.9997 L8.0005,15.0007 L8.0005,20.9987 L8.0005,20.9997 L8.0005,21.0007 L8.0005,26.9977 C8.0005,26.9987 8.0005,26.9987 8.0005,26.9997 C8.0005,27.0007 8.0005,27.0007 8.0005,27.0017 L8.0005,30.7537 C6.1125,32.2687 5.0005,34.5657 5.0005,36.9997 C5.0005,38.0547 5.2045,39.0767 5.5915,40.0247 C5.9885,40.9967 6.5785,41.8907 7.3435,42.6577 C8.8545,44.1677 10.8625,44.9997 13.0005,44.9997 C15.1375,44.9997 17.1465,44.1677 18.6575,42.6577 C20.0735,41.2387 20.8845,39.3827 20.9805,37.3957 C20.9875,37.2637 21.0005,37.1327 21.0005,36.9997 C21.0005,34.5657 19.8885,32.2697 18.0005,30.7547" fill="#B16671" id="Fill-11"/><path d="M23.3745,33.376 C22.7985,34.96 22.0015,36.302 20.9805,37.396 C20.8845,39.383 20.0735,41.238 18.6575,42.657 C17.1455,44.168 15.1375,45 12.9995,45 C10.8625,45 8.8535,44.168 7.3435,42.657 C6.5785,41.891 5.9885,40.997 5.5915,40.024 C4.0965,39.322 2.9015,38.264 2.0085,36.848 C2.0075,36.898 1.9995,36.949 1.9995,37 C1.9995,43.065 6.9345,48 12.9995,48 C19.0655,48 23.9995,43.065 23.9995,37 C23.9995,35.753 23.7785,34.531 23.3745,33.376" fill="#DAD3D3" id="Fill-13"/><path d="M8.4185,40.8691 C8.5265,40.9971 8.6375,41.1231 8.7575,41.2431 C9.8905,42.3761 11.3975,43.0001 13.0005,43.0001 C14.6035,43.0001 16.1095,42.3761 17.2425,41.2431 C17.8075,40.6791 18.2445,40.0211 18.5425,39.3061 C17.0125,40.1751 15.1945,40.7271 13.0745,40.9471 C11.3495,41.1261 9.8015,41.0951 8.4185,40.8691" fill="#DB8390" id="Fill-15"/><path d="M44,19.0654 C44.388,18.8244 44.961,18.4624 45.561,17.8334 C45.792,17.5884 45.994,17.3394 46.169,17.0944 C46.519,16.6044 46.763,16.1274 46.933,15.7184 C47.019,15.5134 47.085,15.3274 47.138,15.1654 C46.476,14.0234 45.351,12.5094 43.5,10.5074 C42.82,11.2434 42.214,11.9394 41.69,12.5864 C41.345,13.0124 40.725,13.0774 40.297,12.7424 C39.748,13.4494 39.29,14.0864 38.917,14.6594 C40.272,16.8994 40.97,18.7644 40.992,20.2704 C42.365,19.9754 43.371,19.4564 44,19.0654" fill="#BBE9FB" id="Fill-17"/><path d="M40.7461,22.3027 C40.8021,22.3187 40.8641,22.3317 40.9221,22.3457 C40.8671,22.3297 40.8061,22.3057 40.7491,22.2887 C40.7481,22.2937 40.7471,22.2987 40.7461,22.3027" fill="#BBE9FB" id="Fill-19"/><path d="M43.5,21.6484 C45.981,21.6484 48,19.8274 48,17.5874 C48,17.0744 47.799,16.3044 47.138,15.1654 C47.085,15.3274 47.019,15.5134 46.933,15.7184 C46.763,16.1274 46.519,16.6044 46.169,17.0944 C45.994,17.3394 45.792,17.5884 45.561,17.8334 C44.961,18.4624 44.388,18.8244 44,19.0654 C43.371,19.4564 42.365,19.9754 40.992,20.2704 C40.993,20.2954 41,20.3254 41,20.3504 C41,21.0214 40.907,21.6694 40.75,22.2894 C40.761,22.2934 40.773,22.2964 40.785,22.3004 C40.831,22.3154 40.878,22.3344 40.922,22.3454 C41.482,22.5034 42.009,22.6044 42.501,22.6434 C42.501,22.6274 42.509,22.6154 42.51,22.6014 C42.536,22.0714 42.965,21.6484 43.5,21.6484" fill="#9CC4E2" id="Fill-21"/><g id="Group-25" transform="translate(39.000000, 8.000000)"><mask fill="white" id="mask-2"><use xlink:href="#path-1"/></mask><g id="Clip-24"/><path d="M5.2222,0.3574 C5.0342,0.1604 4.7732,0.0484 4.5002,0.0484 C4.2272,0.0484 3.9662,0.1604 3.7782,0.3574 C2.7622,1.4184 1.8732,2.4174 1.1362,3.3294 C0.7882,3.7584 0.8552,4.3874 1.2842,4.7354 C1.2882,4.7384 1.2932,4.7394 1.2972,4.7424 C1.7252,5.0774 2.3452,5.0124 2.6902,4.5864 C3.2142,3.9394 3.8202,3.2434 4.5002,2.5074 C6.3502,4.5094 7.4752,6.0234 8.1382,7.1654 C8.7992,8.3044 9.0002,9.0744 9.0002,9.5874 C9.0002,11.8274 6.9812,13.6484 4.5002,13.6484 C3.9652,13.6484 3.5352,14.0714 3.5102,14.6014 C3.5092,14.6154 3.5012,14.6284 3.5012,14.6434 C3.5012,14.6444 3.5002,14.6464 3.5002,14.6484 C3.5002,15.2014 3.9482,15.6484 4.5002,15.6484 C8.0842,15.6484 11.0002,12.9294 11.0002,9.5874 C11.0002,7.4074 9.1642,4.4734 5.2222,0.3574" fill="#866D6D" id="Fill-23" mask="url(#mask-2)"/></g><path d="M33.9063,23.1533 C35.9393,22.2283 37.4473,20.8073 38.4443,18.9063 C38.5083,18.7843 38.5693,18.6593 38.6293,18.5333 C38.5413,18.2863 38.4303,18.0163 38.3033,17.7323 C37.5693,16.0843 36.1423,13.7913 33.5003,10.6013 C28.9783,16.0593 28.0003,18.9093 28.0003,20.3503 C28.0003,21.6723 28.4403,22.8863 29.1723,23.8543 C30.4583,24.2333 32.0333,24.0063 33.9063,23.1533" fill="#BBE9FB" id="Fill-26"/><path d="M38.9741,20.8818 C38.9711,20.9198 38.9661,20.9578 38.9621,20.9958 C38.9411,21.1888 38.9111,21.3788 38.8711,21.5658 C38.3321,24.1248 36.1301,26.0488 33.5001,26.0488 C31.7431,26.0488 30.1791,25.1878 29.1721,23.8548 C28.4401,22.8868 28.0001,21.6718 28.0001,20.3508 C28.0001,18.9088 28.9781,16.0598 33.5001,10.6018 C36.1421,13.7908 37.5691,16.0838 38.3031,17.7328 C38.4301,18.0168 38.5411,18.2858 38.6291,18.5328 C38.9021,19.3038 39.0001,19.8968 39.0001,20.3508 C39.0001,20.5288 38.9901,20.7068 38.9741,20.8818 M41.0001,20.3508 C41.0001,20.3248 40.9931,20.2958 40.9921,20.2708 C40.9701,18.7648 40.2721,16.8998 38.9171,14.6588 C37.8101,12.8308 36.2791,10.7608 34.2601,8.3998 C33.8801,7.9538 33.1201,7.9538 32.7401,8.3998 C28.2041,13.7028 26.0001,17.6118 26.0001,20.3508 C26.0001,24.5958 29.3641,28.0488 33.5001,28.0488 C36.9771,28.0488 39.9011,25.6038 40.7461,22.3028 C40.7471,22.2988 40.7481,22.2938 40.7491,22.2888 C40.9071,21.6688 41.0001,21.0218 41.0001,20.3508" fill="#866D6D" id="Fill-28"/><path d="M38.4443,18.9062 C37.4463,20.8072 35.9393,22.2282 33.9063,23.1532 C32.0333,24.0062 30.4583,24.2332 29.1723,23.8542 C30.1793,25.1872 31.7423,26.0492 33.5003,26.0492 C36.1303,26.0492 38.3323,24.1252 38.8713,21.5652 C38.9103,21.3792 38.9413,21.1882 38.9623,20.9962 C38.9663,20.9582 38.9703,20.9202 38.9743,20.8822 C38.9893,20.7072 39.0003,20.5292 39.0003,20.3502 C39.0003,19.8962 38.9023,19.3032 38.6293,18.5332 C38.5693,18.6592 38.5083,18.7842 38.4443,18.9062" fill="#9CC4E2" id="Fill-30"/></g></g></svg>